<svg width="15" height="14" viewBox="0 0 15 14" fill="none" xmlns="http://www.w3.org/2000/svg">
<path d="M12.2744 8.75849C11.7685 8.25898 11.1368 8.25898 10.6341 8.75849C10.2506 9.13876 9.86711 9.51904 9.49006 9.90576C9.38693 10.0121 9.29992 10.0347 9.17424 9.96377C8.92609 9.82841 8.66183 9.71884 8.42336 9.5706C7.31154 8.87128 6.38019 7.97216 5.55518 6.96024C5.14591 6.45751 4.78174 5.91932 4.52715 5.31346C4.47559 5.191 4.48526 5.11043 4.58516 5.01053C4.96866 4.63992 5.34249 4.25965 5.71954 3.87937C6.24483 3.35086 6.24483 2.7321 5.71632 2.20036C5.41661 1.89743 5.1169 1.60095 4.81719 1.29802C4.50782 0.98864 4.20166 0.676041 3.88907 0.369887C3.38311 -0.123181 2.75146 -0.123181 2.24873 0.37311C1.86201 0.753385 1.4914 1.14333 1.09824 1.51716C0.734076 1.86198 0.550384 2.28415 0.511712 2.77722C0.450481 3.57966 0.647064 4.33699 0.924213 5.07498C1.4914 6.60253 2.35508 7.95927 3.40244 9.20322C4.81719 10.8855 6.50587 12.2164 8.48136 13.1768C9.37082 13.6086 10.2925 13.9405 11.2948 13.9953C11.9844 14.034 12.5838 13.86 13.064 13.3218C13.3927 12.9544 13.7633 12.6192 14.1114 12.268C14.627 11.7459 14.6302 11.1143 14.1178 10.5986C13.5055 9.9831 12.89 9.3708 12.2744 8.75849Z" fill="#929AA2"/>
</svg>
