<svg width="40" height="28" viewBox="0 0 40 28" fill="none" xmlns="http://www.w3.org/2000/svg">
<path d="M8.78049 9.99073C13.6083 9.99073 17.522 13.9045 17.522 18.7322C17.522 23.5599 13.6083 27.4737 8.78049 27.4737C3.9527 27.4737 0.0390244 23.5599 0.0390244 18.7322L0 17.4834C0 7.82785 7.82736 0.000488281 17.4829 0.000488281V4.99561C14.1474 4.99561 11.0114 6.29458 8.65272 8.65321C8.19871 9.1073 7.78435 9.59042 7.41058 10.0979C7.85694 10.0276 8.31438 9.99073 8.78049 9.99073ZM31.2585 9.99073C36.0862 9.99073 40 13.9045 40 18.7322C40 23.5599 36.0862 27.4737 31.2585 27.4737C26.4308 27.4737 22.5171 23.5599 22.5171 18.7322L22.478 17.4834C22.478 7.82785 30.3053 0.000488281 39.961 0.000488281V4.99561C36.6255 4.99561 33.4893 6.29458 31.1308 8.65321C30.6767 9.1073 30.2623 9.59042 29.8885 10.0979C30.3349 10.0276 30.7924 9.99073 31.2585 9.99073Z" fill="#5D6AFB"/>
</svg>
